<svg xmlns="http://www.w3.org/2000/svg" xmlns:xlink="http://www.w3.org/1999/xlink" width="106" height="20" fill="none" xmlns:v="https://vecta.io/nano"><style><![CDATA[.B{fill-rule:evenodd}.C{fill:#10847e}.D{fill:#fff}]]></style><use xlink:href="#W" class="B C"/><mask id="A" maskUnits="userSpaceOnUse" x="26" y="5" width="9" height="12" mask-type="alpha"><path d="M26.559 5.666v10.481h2.214v-3.254h2.089c2.229 0 3.775-1.446 3.775-3.603 0-2.179-1.488-3.625-3.666-3.625h-4.413zm2.217 1.803h1.612c1.276 0 2.001.639 2.001 1.83 0 1.176-.74 1.816-2.009 1.816h-1.605V7.469z" class="B D"/></mask><g mask="url(#A)" class="B C"><path d="M-97.744 915.325h837.105V-12.621H-97.744v927.946z"/></g><use xlink:href="#X" class="B C"/><mask id="B" maskUnits="userSpaceOnUse" x="35" y="5" width="9" height="12" mask-type="alpha"><path d="M35.934 5.078v11.069h2.133V11.55c0-1.038.616-1.743 1.686-1.743.967 0 1.488.574 1.488 1.685v4.656h2.133V10.99c0-1.925-1.033-3.007-2.771-3.007-1.187 0-2.067.552-2.441 1.467h-.132V5.078h-2.096z" class="B D"/></mask><g mask="url(#B)" class="B C"><path d="M-97.744 915.323h837.105V-12.623H-97.744v927.946z"/></g><use xlink:href="#Y" class="B C"/><mask id="C" maskUnits="userSpaceOnUse" x="44" y="7" width="8" height="10" mask-type="alpha"><path d="M45.011 10.378h1.965c.176-.48.689-.741 1.459-.741.88 0 1.364.378 1.364 1.046v.653l-1.957.116c-2.009.116-3.13.959-3.13 2.412 0 1.467 1.092 2.412 2.646 2.412 1.048 0 1.928-.436 2.346-1.17h.132v1.046h2.067v-5.469c0-1.714-1.209-2.717-3.35-2.717-2.031 0-3.401.93-3.541 2.411zm1.788 3.35c0-.574.447-.9 1.363-.966l1.635-.102v.588c0 .813-.747 1.438-1.737 1.438-.74 0-1.261-.364-1.261-.959z" class="B D"/></mask><g mask="url(#C)" class="B C"><use xlink:href="#Z"/></g><use xlink:href="#a" class="B C"/><mask id="D" maskUnits="userSpaceOnUse" x="53" y="8" width="6" height="9" mask-type="alpha"><path d="M55.904 9.413h-.132V8.135h-2.067v8.012h2.133v-4.438c0-1.126.799-1.809 1.965-1.809.345 0 .843.066 1.011.131V8.106c-.183-.065-.542-.102-.836-.102-1.026 0-1.862.61-2.075 1.409z" class="B D"/></mask><g mask="url(#D)" class="B C"><path d="M-97.744 915.321h837.105V-12.625H-97.744v927.946z"/></g><use xlink:href="#b" class="B C"/><mask id="E" maskUnits="userSpaceOnUse" x="60" y="7" width="12" height="10" mask-type="alpha"><path d="M66.844 9.447h-.132c-.322-.93-1.099-1.482-2.236-1.482-1.063 0-1.906.567-2.236 1.482h-.132V8.139h-2.067v8.012h2.133v-4.823c0-.893.594-1.54 1.429-1.54s1.334.487 1.334 1.337v5.026h2.053v-4.903c0-.85.557-1.46 1.422-1.46.901 0 1.349.472 1.349 1.424v4.939h2.133v-5.498c0-1.649-1.004-2.688-2.617-2.688-1.129 0-2.06.588-2.433 1.482z" class="B D"/></mask><g mask="url(#E)" class="B C"><use xlink:href="#Z"/></g><use xlink:href="#c" class="B C"/><mask id="F" maskUnits="userSpaceOnUse" x="73" y="5" width="8" height="12" mask-type="alpha"><path d="M73.883 5.666v10.481h7.008v-1.874h-4.794v-2.55h4.523V9.988h-4.523V7.54h4.794V5.666h-7.008z" class="B D"/></mask><g mask="url(#F)" class="B C"><path d="M-97.742 915.325h837.105V-12.621H-97.742v927.946z"/></g><use xlink:href="#d" class="B C"/><mask id="G" maskUnits="userSpaceOnUse" x="81" y="7" width="9" height="10" mask-type="alpha"><path d="M82.275 10.378h1.965c.176-.48.689-.741 1.459-.741.88 0 1.364.378 1.364 1.046v.653l-1.957.116c-2.009.116-3.13.959-3.13 2.412 0 1.467 1.092 2.412 2.646 2.412 1.048 0 1.928-.436 2.345-1.17h.132v1.046h2.067v-5.469c0-1.714-1.209-2.717-3.35-2.717-2.031 0-3.401.93-3.54 2.411zm1.787 3.35c0-.574.448-.9 1.364-.966l1.635-.102v.588c0 .813-.748 1.438-1.737 1.438-.74 0-1.261-.364-1.261-.959z" class="B D"/></mask><g mask="url(#G)" class="B C"><path d="M-97.74 915.329h837.105V-12.617H-97.74v927.946z"/></g><use xlink:href="#e" class="B C"/><mask id="H" maskUnits="userSpaceOnUse" x="90" y="7" width="8" height="10" mask-type="alpha"><path d="M90.477 10.493c0 1.234.763 1.975 2.332 2.317l1.466.327c.711.152 1.019.392 1.019.784 0 .516-.572.857-1.4.857-.85 0-1.371-.312-1.532-.857h-2.082c.147 1.54 1.437 2.404 3.57 2.404 2.118 0 3.563-1.046 3.563-2.644 0-1.198-.704-1.852-2.273-2.194l-1.517-.326c-.748-.167-1.092-.407-1.092-.799 0-.509.564-.85 1.327-.85.792 0 1.283.32 1.393.835h1.972c-.117-1.533-1.327-2.383-3.38-2.383-2.015 0-3.365 1.01-3.365 2.528z" class="B D"/></mask><g mask="url(#H)" class="B C"><path d="M-97.752 915.329h837.105V-12.617H-97.752v927.946z"/></g><use xlink:href="#f" class="B C"/><mask id="I" maskUnits="userSpaceOnUse" x="97" y="8" width="9" height="12" mask-type="alpha"><path d="M103.566 8.137l-1.701 6.072h-.131l-1.701-6.072H97.68l2.837 8.062-.074.29c-.176.61-.63.865-1.429.865-.088 0-.41 0-.484-.015v1.7c.088.014.733.022.814.022 2.015 0 3.005-.726 3.694-2.789l2.786-8.135h-2.258z" class="B D"/></mask><g mask="url(#I)" class="B C"><path d="M-97.748 915.325h837.105V-12.621H-97.748v927.946z"/></g><use xlink:href="#g" class="B C"/><mask id="J" maskUnits="userSpaceOnUse" x="4" y="9" width="12" height="11" mask-type="alpha"><path d="M8.315 10.209l-2.978 2.876c-.288.285-.402.646-.311 1.044.205.984 1.379 1.344 2.145.653l1.788-1.727c.182-.18.295-.217.5-.015l2.758 2.658c.204.195.182.308-.023.488l-1.788 1.719a1.15 1.15 0 0 0-.258 1.344 1.17 1.17 0 0 0 1.053.751c.439.008.743-.09.97-.323l2.978-2.876a1.1 1.1 0 0 0-.008-1.622l-5.137-4.963a1.22 1.22 0 0 0-.848-.353c-.3 0-.6.116-.842.346z" class="B D"/></mask><g mask="url(#J)" class="B C"><path d="M-97.746 915.323h837.105V-12.623H-97.746v927.946z"/></g><use xlink:href="#W" class="B C"/><mask id="K" maskUnits="userSpaceOnUse" x="26" y="5" width="9" height="12" mask-type="alpha"><path d="M26.559 5.666v10.481h2.214v-3.254h2.089c2.229 0 3.775-1.446 3.775-3.603 0-2.179-1.488-3.625-3.666-3.625h-4.413zm2.217 1.803h1.612c1.276 0 2.001.639 2.001 1.83 0 1.176-.74 1.816-2.009 1.816h-1.605V7.469z" class="B D"/></mask><g mask="url(#K)" class="B C"><path d="M-97.744 915.325h837.105V-12.621H-97.744v927.946z"/></g><use xlink:href="#X" class="B C"/><mask id="L" maskUnits="userSpaceOnUse" x="35" y="5" width="9" height="12" mask-type="alpha"><path d="M35.934 5.078v11.069h2.133V11.55c0-1.038.616-1.743 1.686-1.743.967 0 1.488.574 1.488 1.685v4.656h2.133V10.99c0-1.925-1.033-3.007-2.771-3.007-1.187 0-2.067.552-2.441 1.467h-.132V5.078h-2.096z" class="B D"/></mask><g mask="url(#L)" class="B C"><path d="M-97.744 915.323h837.105V-12.623H-97.744v927.946z"/></g><use xlink:href="#Y" class="B C"/><mask id="M" maskUnits="userSpaceOnUse" x="44" y="7" width="8" height="10" mask-type="alpha"><path d="M45.011 10.378h1.965c.176-.48.689-.741 1.459-.741.88 0 1.364.378 1.364 1.046v.653l-1.957.116c-2.009.116-3.13.959-3.13 2.412 0 1.467 1.092 2.412 2.646 2.412 1.048 0 1.928-.436 2.346-1.17h.132v1.046h2.067v-5.469c0-1.714-1.209-2.717-3.35-2.717-2.031 0-3.401.93-3.541 2.411zm1.788 3.35c0-.574.447-.9 1.363-.966l1.635-.102v.588c0 .813-.747 1.438-1.737 1.438-.74 0-1.261-.364-1.261-.959z" class="B D"/></mask><g mask="url(#M)" class="B C"><use xlink:href="#Z"/></g><use xlink:href="#a" class="B C"/><mask id="N" maskUnits="userSpaceOnUse" x="53" y="8" width="6" height="9" mask-type="alpha"><path d="M55.904 9.413h-.132V8.135h-2.067v8.012h2.133v-4.438c0-1.126.799-1.809 1.965-1.809.345 0 .843.066 1.011.131V8.106c-.183-.065-.542-.102-.836-.102-1.026 0-1.862.61-2.075 1.409z" class="B D"/></mask><g mask="url(#N)" class="B C"><path d="M-97.744 915.321h837.105V-12.625H-97.744v927.946z"/></g><use xlink:href="#b" class="B C"/><mask id="O" maskUnits="userSpaceOnUse" x="60" y="7" width="12" height="10" mask-type="alpha"><path d="M66.844 9.447h-.132c-.322-.93-1.099-1.482-2.236-1.482-1.063 0-1.906.567-2.236 1.482h-.132V8.139h-2.067v8.012h2.133v-4.823c0-.893.594-1.54 1.429-1.54s1.334.487 1.334 1.337v5.026h2.053v-4.903c0-.85.557-1.46 1.422-1.46.901 0 1.349.472 1.349 1.424v4.939h2.133v-5.498c0-1.649-1.004-2.688-2.617-2.688-1.129 0-2.06.588-2.433 1.482z" class="B D"/></mask><g mask="url(#O)" class="B C"><path d="M-98 914.946H739.105V-13H-98V914.946Z"/></g><use xlink:href="#c" class="B C"/><mask id="P" maskUnits="userSpaceOnUse" x="73" y="5" width="8" height="12" mask-type="alpha"><path d="M73.883 5.666v10.481h7.008v-1.874h-4.794v-2.55h4.523V9.988h-4.523V7.54h4.794V5.666h-7.008z" class="B D"/></mask><g mask="url(#P)" class="B C"><path d="M-97.742 915.325h837.105V-12.621H-97.742v927.946z"/></g><use xlink:href="#d" class="B C"/><mask id="Q" maskUnits="userSpaceOnUse" x="81" y="7" width="9" height="10" mask-type="alpha"><path d="M82.275 10.378h1.965c.176-.48.689-.741 1.459-.741.88 0 1.364.378 1.364 1.046v.653l-1.957.116c-2.009.116-3.13.959-3.13 2.412 0 1.467 1.092 2.412 2.646 2.412 1.048 0 1.928-.436 2.345-1.17h.132v1.046h2.067v-5.469c0-1.714-1.209-2.717-3.35-2.717-2.031 0-3.401.93-3.54 2.411zm1.787 3.35c0-.574.448-.9 1.364-.966l1.635-.102v.588c0 .813-.748 1.438-1.737 1.438-.74 0-1.261-.364-1.261-.959z" class="B D"/></mask><g mask="url(#Q)" class="B C"><path d="M-97.74 915.329h837.105V-12.617H-97.74v927.946z"/></g><use xlink:href="#e" class="B C"/><mask id="R" maskUnits="userSpaceOnUse" x="90" y="7" width="8" height="10" mask-type="alpha"><path d="M90.477 10.493c0 1.234.763 1.975 2.332 2.317l1.466.327c.711.152 1.019.392 1.019.784 0 .516-.572.857-1.4.857-.85 0-1.371-.312-1.532-.857h-2.082c.147 1.54 1.437 2.404 3.57 2.404 2.118 0 3.563-1.046 3.563-2.644 0-1.198-.704-1.852-2.273-2.194l-1.517-.326c-.748-.167-1.092-.407-1.092-.799 0-.509.564-.85 1.327-.85.792 0 1.283.32 1.393.835h1.972c-.117-1.533-1.327-2.383-3.38-2.383-2.015 0-3.365 1.01-3.365 2.528z" class="B D"/></mask><g mask="url(#R)" class="B C"><path d="M-97.752 915.329h837.105V-12.617H-97.752v927.946z"/></g><use xlink:href="#f" class="B C"/><mask id="S" maskUnits="userSpaceOnUse" x="97" y="8" width="9" height="12" mask-type="alpha"><path d="M103.566 8.137l-1.701 6.072h-.131l-1.701-6.072H97.68l2.837 8.062-.074.29c-.176.61-.63.865-1.429.865-.088 0-.41 0-.484-.015v1.7c.088.014.733.022.814.022 2.015 0 3.005-.726 3.694-2.789l2.786-8.135h-2.258z" class="B D"/></mask><g mask="url(#S)" class="B C"><path d="M-97.748 915.325h837.105V-12.621H-97.748v927.946z"/></g><use xlink:href="#g" class="B C"/><mask id="T" maskUnits="userSpaceOnUse" x="4" y="9" width="12" height="11" mask-type="alpha"><path d="M8.315 10.209l-2.978 2.876c-.288.285-.402.646-.311 1.044.205.984 1.379 1.344 2.145.653l1.788-1.727c.182-.18.295-.217.5-.015l2.758 2.658c.204.195.182.308-.023.488l-1.788 1.719a1.15 1.15 0 0 0-.258 1.344 1.17 1.17 0 0 0 1.053.751c.439.008.743-.09.97-.323l2.978-2.876a1.1 1.1 0 0 0-.008-1.622l-5.137-4.963a1.22 1.22 0 0 0-.848-.353c-.3 0-.6.116-.842.346z" class="B D"/></mask><g mask="url(#T)" class="B C"><path d="M-97.746 915.323h837.105V-12.623H-97.746v927.946z"/></g><path d="M18.583 11.725l-.993-.953c-.235-.203-.288-.345-.083-.638.72-1.044 1.053-2.23 1.068-3.499 0-.541-.076-1.066-.189-1.584C17.105.117 10.823-1.677 7.042 1.821c-1.167 1.081-2.296 2.2-3.44 3.304L.396 8.226c-.371.361-.492.796-.318 1.291s.553.751 1.068.819c.447.052.818-.135 1.129-.45l6.297-6.082c1.053-1.029 2.296-1.442 3.758-1.291 2.258.248 3.971 2.403 3.66 4.602a4.18 4.18 0 0 1-1.288 2.493c-.538.526-.599 1.224-.114 1.719a45.52 45.52 0 0 0 2.296 2.222c.5.451 1.288.383 1.75-.098.47-.503.454-1.209-.053-1.727z" class="B C"/><mask id="U" maskUnits="userSpaceOnUse" x="0" y="0" width="19" height="14" mask-type="alpha"><path d="M7.042 1.822l-3.44 3.303L.396 8.226c-.371.36-.492.796-.318 1.291s.553.751 1.068.818c.447.053.818-.135 1.129-.45l6.297-6.082c1.053-1.029 2.296-1.441 3.759-1.291 2.258.248 3.971 2.403 3.66 4.603a4.18 4.18 0 0 1-1.288 2.493c-.538.526-.598 1.224-.114 1.719l2.296 2.222c.5.451 1.288.383 1.75-.098.47-.503.455-1.209-.053-1.726l-.993-.953c-.235-.203-.288-.345-.083-.638.72-1.044 1.053-2.23 1.068-3.499 0-.541-.076-1.066-.19-1.584C17.562 1.875 14.665 0 11.698 0 10.054 0 8.39.574 7.042 1.822z" class="B D"/></mask><g mask="url(#U)" class="B C"><path d="M0 14.356h19.424V-.074H0v14.431z"/></g><defs ><path id="W" d="M28.777 11.115h1.605c1.268 0 2.009-.639 2.009-1.816 0-1.191-.725-1.831-2.001-1.831h-1.613v3.646zm2.194-5.449c2.177 0 3.666 1.445 3.666 3.625 0 2.157-1.547 3.603-3.776 3.603h-2.089v3.254h-2.214V5.666h4.413z"/><path id="X" d="M35.932 5.076h2.097v4.372h.132c.374-.915 1.253-1.467 2.441-1.467 1.737 0 2.771 1.082 2.771 3.007v5.157h-2.133V11.49c0-1.111-.52-1.685-1.488-1.685-1.071 0-1.686.705-1.686 1.743v4.598h-2.133V5.076z"/><path id="Y" d="M49.795 13.247v-.588l-1.635.102c-.916.065-1.364.392-1.364.966 0 .595.521.959 1.261.959.99 0 1.737-.625 1.737-1.438zm-5.086.616c0-1.452 1.121-2.295 3.13-2.411l1.957-.116v-.654c0-.669-.484-1.046-1.364-1.046-.77 0-1.283.261-1.458.741h-1.965c.139-1.482 1.51-2.412 3.54-2.412 2.141 0 3.35 1.002 3.35 2.717v5.469h-2.067v-1.046h-.132c-.418.734-1.297 1.17-2.346 1.17-1.554 0-2.646-.944-2.646-2.411z"/><path id="Z" d="M-97.742 915.329h837.105V-12.617H-97.742v927.946z"/><path id="a" d="M53.701 8.135h2.067v1.278h.132c.213-.799 1.049-1.409 2.075-1.409.293 0 .653.037.836.102v1.924c-.169-.065-.667-.131-1.011-.131-1.165 0-1.965.683-1.965 1.809v4.438h-2.133V8.135z"/><path id="b" d="M60.041 8.136h2.067v1.307h.132c.33-.915 1.173-1.482 2.236-1.482 1.136 0 1.913.552 2.236 1.482h.132c.374-.893 1.305-1.482 2.433-1.482 1.613 0 2.617 1.039 2.617 2.688v5.498h-2.133v-4.939c0-.952-.447-1.424-1.349-1.424-.865 0-1.422.61-1.422 1.46v4.902h-2.053v-5.026c0-.85-.498-1.337-1.334-1.337s-1.429.647-1.429 1.54v4.823h-2.133V8.136z"/><path id="c" d="M80.883 16.147h-7.008V5.666h7.008V7.54h-4.794v2.448h4.523v1.736h-4.523v2.55h4.794v1.874z"/><path id="d" d="M87.061 13.247v-.588l-1.635.102c-.916.065-1.364.392-1.364.966 0 .595.521.959 1.261.959.99 0 1.737-.625 1.737-1.438zm-5.086.616c0-1.452 1.121-2.295 3.13-2.411l1.957-.116v-.654c0-.669-.484-1.046-1.364-1.046-.77 0-1.283.261-1.459.741h-1.965c.139-1.482 1.51-2.412 3.54-2.412 2.141 0 3.35 1.002 3.35 2.717v5.469h-2.067v-1.046h-.132c-.418.734-1.297 1.17-2.346 1.17-1.554 0-2.646-.944-2.646-2.411z"/><path id="e" d="M93.844 7.961c2.053 0 3.262.85 3.379 2.383h-1.972c-.11-.516-.601-.835-1.393-.835-.763 0-1.327.342-1.327.85 0 .392.344.632 1.092.799l1.517.326c1.569.342 2.273.996 2.273 2.194 0 1.598-1.444 2.644-3.563 2.644-2.133 0-3.423-.865-3.57-2.404h2.082c.161.545.682.857 1.532.857.829 0 1.4-.341 1.4-.857 0-.392-.308-.632-1.019-.785l-1.466-.327c-1.569-.341-2.331-1.082-2.331-2.317 0-1.518 1.349-2.528 3.365-2.528z"/><path id="f" d="M98.536 19.035v-1.7c.073.015.396.015.484.015.799 0 1.253-.255 1.429-.865l.074-.29-2.837-8.063h2.353l1.7 6.072h.132l1.701-6.072h2.258l-2.786 8.135c-.689 2.063-1.679 2.789-3.694 2.789-.081 0-.726-.007-.814-.022z"/><path id="g" d="M10.005 10.216c-.493-.473-1.205-.466-1.69-.007l-2.978 2.876c-.288.285-.402.646-.311 1.043.205.984 1.379 1.344 2.145.653l1.788-1.727c.182-.18.296-.218.5-.015l2.758 2.658c.204.195.182.308-.023.488l-1.788 1.719a1.15 1.15 0 0 0-.258 1.344 1.17 1.17 0 0 0 1.053.751c.439.007.742-.09.97-.323l2.978-2.876a1.1 1.1 0 0 0-.008-1.622l-5.138-4.963z"/></defs></svg>